<svg width="284" height="94" fill="none" xmlns="http://www.w3.org/2000/svg"><path d="M275.6 46.3c7.2-12.5 4.9-43.3 4.9-43.3-10.3 8.3-32.8 11.8-32.8 11.8l30.6-7.6c-27 41.3-58.3 44.1-58.3 44.1" stroke="#fff" stroke-opacity=".34" stroke-width="6" stroke-miterlimit="10" stroke-linecap="round" stroke-linejoin="round"/><path d="M8.922 59.316l.328-1.174c-1.454.114-2.486.078-3.095-.106-.597-.2-.928-.61-.993-1.231-.053-.505.095-1.025.445-1.56.388-.668.814-1.283 1.28-1.842.463-.573.903-.992 1.32-1.259.36-.194.87-.327 1.53-.396 1.605-.169 3.434-.27 5.486-.302.47-.023.86-.044 1.172-.064.312-.02.65-.036 1.016-.048.855-.09 1.4-.127 1.638-.113.236.001.522.05.86.145.228.055.428.152.6.29.359.303.576.817.653 1.542.141 1.347-.234 2.257-1.127 2.73-.52.291-.995.498-1.427.622-.434.111-1.221.28-2.363.504l-1.367 7.174a30.63 30.63 0 002.42-.333c.386-.066.98-.142 1.783-.226.945-.1 1.623-.066 2.033.1.409.154.64.483.693.988.04.388-.088.971-.386 1.749-.298.778-.644 1.41-1.038 1.896-.185.23-.461.402-.829.52-.368.103-1.006.203-1.912.299l-.273.028-.485.051a43.42 43.42 0 00-2.96.43c-.376 2.029-.754 3.594-1.136 4.694-.383 1.088-.893 2.032-1.53 2.832-.438.557-.922 1-1.45 1.33-.515.33-1.012.52-1.492.57-.79.083-1.5-.072-2.13-.464-.617-.393-.957-.887-1.02-1.483-.076-.725.3-3.056 1.13-6.992.83-3.937 1.706-7.57 2.626-10.9zm25.469-3.01c1.93-.203 2.918-.078 2.966.375.054.518-.35.842-1.214.972a6.556 6.556 0 00-2.84 1.202c-.85.626-1.583 1.436-2.198 2.43a11.216 11.216 0 00-1.325 3.282 11.418 11.418 0 00-.199 3.713c.149 1.411.599 2.516 1.35 3.314.75.786 1.656 1.123 2.718 1.01.984-.103 1.792-.698 2.425-1.786.632-1.087.877-2.305.735-3.651a7.005 7.005 0 00-1.024-3.015 6.447 6.447 0 00-2.258-2.237c-.407-.259-.617-.453-.63-.582-.02-.181.217-.488.708-.92a9.393 9.393 0 011.895-1.22c.71-.35 1.317-.55 1.822-.603a3.175 3.175 0 011.7.292c.562.242 1.074.627 1.535 1.155.46.514.832 1.13 1.117 1.846a8.01 8.01 0 01.575 2.296c.145 1.373.029 2.76-.348 4.161-.378 1.388-.944 2.541-1.699 3.458-.977 1.163-2.2 2.163-3.671 2.998-1.459.821-2.88 1.304-4.267 1.45-1.346.142-2.711.05-4.094-.276-1.37-.328-2.483-.833-3.34-1.515-1.145-.927-1.818-2.343-2.018-4.246-.158-1.502.053-3.043.634-4.623a14.738 14.738 0 012.562-4.393c1.14-1.364 2.43-2.475 3.872-3.334 1.454-.872 2.957-1.39 4.511-1.554zm19.62 3.004c.365-1.518.638-3.092.82-4.721.181-1.642.227-2.891.137-3.746-.025-.233-.102-.343-.231-.329-.207.022-.52.526-.94 1.513a19.1 19.1 0 00-1.006 2.953c-.53 2.19-.928 4.006-1.195 5.448-.256 1.428-.412 2.622-.468 3.584-.056.962-.032 1.935.071 2.919.089.841.244 1.447.466 1.817.235.367.56.53.974.486.712-.075 1.476-.47 2.291-1.183.814-.727 1.524-1.64 2.128-2.738.477-.822.87-1.25 1.181-1.282.402-.043.636.253.703.888.145 1.386-.146 2.785-.875 4.197a10.449 10.449 0 01-3.022 3.577c-1.274.959-2.623 1.513-4.047 1.663-1.748.184-3.23-.217-4.447-1.202s-1.918-2.365-2.105-4.139c-.152-1.45-.02-3.18.398-5.187a36.372 36.372 0 011.868-6.147c.84-2.091 1.798-4.005 2.872-5.742 1.075-1.736 2.176-3.096 3.303-4.078a4.13 4.13 0 012.418-1.099c.7-.073 1.357.08 1.973.46.615.368 1.118.924 1.51 1.668.393.745.639 1.59.738 2.535.214 2.033.021 4.063-.577 6.09-.586 2.025-1.516 3.825-2.79 5.399-.602.757-1.193 1.362-1.774 1.816-.58.454-1.104.705-1.57.754-.453.048-.698-.103-.735-.453-.02-.194.109-.58.388-1.16.379-.76.797-1.89 1.254-3.392.037-.148.08-.303.128-.465.047-.175.101-.41.162-.704zm18.22-1.915a38.6 38.6 0 00.82-4.721c.181-1.642.227-2.891.137-3.746-.025-.233-.102-.343-.231-.329-.207.022-.52.526-.94 1.513a19.121 19.121 0 00-1.006 2.953c-.53 2.19-.928 4.006-1.195 5.448-.256 1.428-.412 2.622-.468 3.584a17.9 17.9 0 00.071 2.919c.089.841.244 1.447.466 1.816.235.369.56.53.974.487.713-.075 1.476-.47 2.291-1.183.814-.727 1.524-1.64 2.128-2.738.477-.822.87-1.25 1.181-1.283.402-.042.636.255.703.889.145 1.386-.147 2.785-.875 4.197a10.448 10.448 0 01-3.022 3.577c-1.274.959-2.623 1.513-4.047 1.663-1.749.183-3.23-.217-4.447-1.202s-1.918-2.365-2.105-4.139c-.152-1.45-.02-3.18.398-5.187a36.382 36.382 0 011.868-6.147c.84-2.091 1.798-4.005 2.872-5.742 1.075-1.736 2.175-3.096 3.303-4.078a4.13 4.13 0 012.418-1.099c.7-.073 1.357.08 1.973.46.615.368 1.118.924 1.51 1.668.393.744.639 1.59.738 2.535a15.551 15.551 0 01-.577 6.09c-.586 2.025-1.516 3.825-2.791 5.399-.601.757-1.192 1.362-1.773 1.816-.58.454-1.104.705-1.57.754-.454.048-.699-.103-.735-.453-.02-.194.109-.58.388-1.16.379-.76.797-1.89 1.254-3.392.037-.148.08-.303.128-.465.047-.175.101-.41.162-.704zm20.16-7.186c1.93-.203 2.919-.077 2.966.376.055.518-.35.842-1.213.972a6.557 6.557 0 00-2.84 1.202c-.85.626-1.583 1.436-2.199 2.43a11.216 11.216 0 00-1.324 3.282 11.42 11.42 0 00-.199 3.713c.148 1.411.598 2.516 1.35 3.314.75.785 1.656 1.122 2.718 1.01.984-.103 1.792-.698 2.424-1.786.632-1.087.877-2.305.736-3.651a7.003 7.003 0 00-1.024-3.015 6.449 6.449 0 00-2.258-2.238c-.407-.258-.617-.452-.63-.581-.02-.182.217-.488.708-.92a9.392 9.392 0 011.895-1.22c.71-.35 1.316-.55 1.821-.604a3.174 3.174 0 011.7.293c.563.242 1.075.627 1.536 1.154a6.15 6.15 0 011.117 1.847c.296.702.488 1.467.575 2.296.144 1.373.028 2.76-.348 4.16-.378 1.39-.944 2.542-1.699 3.46-.977 1.162-2.201 2.162-3.671 2.997-1.459.821-2.881 1.304-4.267 1.45-1.346.142-2.711.05-4.094-.277-1.37-.327-2.483-.832-3.34-1.514-1.145-.927-1.818-2.343-2.018-4.246-.158-1.502.053-3.043.633-4.623a14.742 14.742 0 012.563-4.394c1.14-1.363 2.43-2.474 3.872-3.333 1.453-.872 2.957-1.39 4.51-1.554zm20.809 9.44l-.652 1.835c-.599 1.648-1.165 2.997-1.696 4.047-.531 1.051-1.046 1.812-1.547 2.284-.501.459-1.057.72-1.665.784-.622.065-1.194-.143-1.716-.625-1.018-.967-1.987-2.9-2.907-5.802-.731-2.345-1.188-4.386-1.37-6.12-.143-1.36-.101-2.458.125-3.294.225-.848.648-1.495 1.269-1.94.62-.458 1.46-.743 2.522-.854.557-.059.969-.004 1.235.165.28.167.495.537.647 1.11.152.573.29 1.449.414 2.627a56.42 56.42 0 00.95 6.047c.036.101.156.613.357 1.534l.097-.01c.071-.204.125-.367.165-.489l.119-.366c.039-.122.074-.23.103-.325a7.89 7.89 0 00.149-.448 98.112 98.112 0 001.593-5.587c.624-2.41 1.071-3.884 1.342-4.423.078-.126.188-.268.328-.427.574-.519 1.437-.838 2.59-.96.608-.063 1.074.005 1.396.207.321.19.561.544.721 1.063.172.52.335 1.386.489 2.6.102.972.355 2.32.759 4.045.415 1.71.831 3.231 1.245 4.563.14.456.428 1.323.863 2.6l.097-.01c.195-.885.319-1.573.372-2.063.203-1.684.142-4.073-.183-7.168l-.092-.874c-.097-.92-.09-1.66.022-2.222.109-.574.354-1.11.734-1.609a5.68 5.68 0 011.457-1.272c.564-.36 1.073-.565 1.526-.612.531-.056.929.118 1.194.522.277.39.465 1.058.564 2.003.223 2.124.061 4.818-.486 8.083-.479 2.787-1.221 5.385-2.224 7.795-.327.754-.654 1.378-.982 1.87-.328.493-.683.851-1.066 1.075-.381.236-.83.382-1.348.436-1.839.194-3.471-.826-4.897-3.06a16.418 16.418 0 01-1.192-2.368 25.915 25.915 0 01-1.034-3.112c-.087-.2-.183-.623-.29-1.266l-.097.01zm38.705-2.085l-.302.306c-.061.046-.46.422-1.197 1.128-1.426 1.38-2.607 2.48-3.542 3.298-.937.806-1.724 1.412-2.362 1.82-.639.394-1.166.613-1.581.657-.699.073-1.292-.152-1.779-.677-.476-.54-.762-1.269-.859-2.188-.163-1.554-.12-3.385.13-5.493a41.829 41.829 0 011.241-6.317c.634-2.318 1.552-3.79 2.757-4.414.42-.24.928-.392 1.523-.454.816-.086 1.503.097 2.061.549.558.452.881 1.092.968 1.921a6.19 6.19 0 01-.102 1.837c-.127.655-.358 1.445-.693 2.37l-.174.589c-.866 2.473-1.272 3.963-1.219 4.468.031.298.15.436.357.414.195-.02.433-.183.715-.487.282-.305.709-.854 1.28-1.647.35-.535.855-1.21 1.516-2.025l.643-.794.552-.726c1.172-1.433 2.142-2.477 2.911-3.134.768-.67 1.423-1.033 1.967-1.09 1.036-.11 1.649.736 1.838 2.536.039.375.064 1.047.074 2.015.041 1.881.129 3.469.265 4.764.04.258.072.496.095.717.035.206.07.477.105.813.182.858.317 1.519.405 1.98l.252 1.094c.041.388-.272.768-.94 1.14-.668.37-1.462.605-2.382.701-.841.089-1.583.003-2.226-.257a3.294 3.294 0 01-1.515-1.333c-.379-.615-.617-1.388-.715-2.32a7.797 7.797 0 01-.025-.607c-.005-.3-.019-.685-.042-1.154zm15.644 5.347c.76-.12 1.414-.561 1.962-1.326.56-.779.796-1.583.709-2.411-.06-.57-.295-1.004-.706-1.3-.444-.36-1.385-.66-2.825-.902-2.121-.38-3.532-.905-4.231-1.578a2.965 2.965 0 01-1.098-2.045c-.157-1.489.224-3.035 1.142-4.637.931-1.603 2.189-2.966 3.773-4.088 1.583-1.136 3.229-1.793 4.938-1.973a4.888 4.888 0 012.392.338c.766.312 1.397.77 1.893 1.372.494.59.78 1.26.859 2.011.078.738-.075 1.527-.458 2.366a6.71 6.71 0 01-1.56 2.167c-.645.591-1.284.92-1.919.987a1.895 1.895 0 01-.976-.133c-.275-.128-.423-.283-.442-.464-.019-.181.005-.452.072-.813.168-1.143.208-2.13.121-2.958-.086-.816-.413-1.56-.981-2.234-.588.507-.966.9-1.133 1.18a6.408 6.408 0 00-.942 2.062c-.22.77-.295 1.485-.226 2.145.049.466.192.83.429 1.094.249.249.623.445 1.123.589.512.142 1.273.279 2.281.408 1.687.229 2.887.495 3.6.8.165.075.424.237.778.488.548.48.866 1.14.954 1.981.094.894-.089 1.83-.549 2.807-.462.965-1.224 1.995-2.288 3.089-1.132 1.18-2.29 2.06-3.473 2.643-1.182.582-2.518.952-4.007 1.108-1.438.151-2.601-.014-3.489-.497-.876-.484-1.366-1.218-1.469-2.202-.074-.7.124-1.434.593-2.203a6.513 6.513 0 011.834-1.98c.769-.54 1.541-.85 2.318-.931.583-.062.888.037.915.296.014.13-.048.352-.185.668-.41.96-.575 1.821-.494 2.585.057.544.312 1.041.765 1.49z" fill="#fff" fill-opacity=".34"/></svg>