<svg width="38" height="32" fill="none" xmlns="http://www.w3.org/2000/svg"><path d="M5 30c-.7 0-1.4-.4-1.7-1-.4-.6-.4-1.4 0-2l14-24c.4-.6 1-1 1.7-1s1.4.4 1.7 1l14 24c.4.6.4 1.4 0 2-.4.6-1 1-1.7 1H5z" fill="url(#paint0_linear)"/><path d="M19 4l14 24H5L19 4zm0-4c-1.4 0-2.7.8-3.5 2l-14 24c-.7 1.2-.7 2.8 0 4 .7 1.2 2 2 3.5 2h28c1.4 0 2.8-.8 3.5-2 .7-1.2.7-2.8 0-4l-14-24C21.7.8 20.4 0 19 0z" fill="#720929"/><defs><linearGradient id="paint0_linear" x1="19" y1="30" x2="19" y2="2" gradientUnits="userSpaceOnUse"><stop stop-color="#621F39"/><stop offset="1" stop-color="#AF577A"/></linearGradient></defs></svg>