<svg width="100" height="100" fill="none" xmlns="http://www.w3.org/2000/svg"><g opacity=".84"><path d="M81 95H19c-7.7 0-14-6.3-14-14V19c0-7.7 6.3-14 14-14h62c7.7 0 14 6.3 14 14v62c0 7.7-6.3 14-14 14z" fill="url(#paint0_linear)"/><path d="M19 97.1h62c8.86 0 16.1-7.24 16.1-16.1V19c0-8.86-7.24-16.1-16.1-16.1H19C10.14 2.9 2.9 10.14 2.9 19v62c0 8.86 7.24 16.1 16.1 16.1z" stroke="url(#paint1_linear)" stroke-opacity=".14" stroke-width="4.2"/><path d="M50 21L34 37v5h10v37h12V42h10v-5L50 21z" fill="url(#paint2_linear)"/></g><defs><linearGradient id="paint0_linear" x1="50" y1="95" x2="50" y2="5" gradientUnits="userSpaceOnUse"><stop stop-color="#0B080C"/><stop offset="1" stop-color="#675671"/></linearGradient><linearGradient id="paint1_linear" x1="50" y1="5" x2="50" y2="95" gradientUnits="userSpaceOnUse"><stop stop-opacity="0"/><stop offset="1" stop-color="#040104"/></linearGradient><linearGradient id="paint2_linear" x1="50" y1="79" x2="50" y2="21" gradientUnits="userSpaceOnUse"><stop stop-color="#18131B" stop-opacity="0"/><stop offset="1" stop-color="#fff"/></linearGradient></defs></svg>